<svg width="24" height="25" viewBox="0 0 24 25" fill="none" xmlns="http://www.w3.org/2000/svg">
<path d="M12 21.722L3.51498 13.237C2.38967 12.1118 1.75742 10.5857 1.75732 8.99437C1.75723 7.40303 2.3893 5.87683 3.51448 4.75152C4.63966 3.62621 6.16579 2.99396 7.75713 2.99387C9.34847 2.99377 10.8747 3.62584 12 4.75102C13.1258 3.62711 14.6517 2.99587 16.2425 2.99587C17.8333 2.99587 19.3591 3.62711 20.485 4.75102C21.6084 5.87714 22.2393 7.40286 22.2393 8.99352C22.2393 10.5842 21.6084 12.1099 20.485 13.236L12 21.722ZM7.75698 4.99402C6.96577 4.99399 6.19233 5.22861 5.53447 5.66819C4.87662 6.10778 4.36391 6.73259 4.06119 7.46359C3.75847 8.1946 3.67934 8.99896 3.8338 9.77494C3.98827 10.5509 4.3694 11.2637 4.92898 11.823L12 18.894L19.071 11.823C19.4771 11.4259 19.794 10.9469 20.0006 10.4178C20.2072 9.88869 20.2988 9.32166 20.2691 8.75442C20.2395 8.18719 20.0895 7.63277 19.8289 7.12805C19.5684 6.62333 19.2033 6.17989 18.758 5.82724C18.3128 5.47458 17.7975 5.22081 17.2465 5.08279C16.6955 4.94478 16.1215 4.92569 15.5625 5.02681C15.0036 5.12792 14.4726 5.34691 14.0049 5.66921C13.5372 5.99151 13.1435 6.40972 12.85 6.89602L12 8.26802L11.15 6.89602C10.7991 6.31105 10.3014 5.82797 9.70621 5.49469C9.11104 5.16141 8.43908 4.9895 7.75698 4.99602V4.99402Z" fill="#F86338"/>
</svg>
